<mxfile host="app.diagrams.net" modified="2020-10-20T00:10:13.521Z" agent="5.0 (Macintosh; Intel Mac OS X 10_14_6) AppleWebKit/537.36 (KHTML, like Gecko) Chrome/85.0.4183.121 Safari/537.36" etag="JFbqpXTk5Ws5gvKwWCfI" version="13.8.0" type="github">
  <diagram id="C5RBs43oDa-KdzZeNtuy" name="Page-1">
    <mxGraphModel dx="946" dy="500" grid="1" gridSize="10" guides="1" tooltips="1" connect="1" arrows="1" fold="1" page="1" pageScale="1" pageWidth="827" pageHeight="1169" math="0" shadow="0">
      <root>
        <mxCell id="WIyWlLk6GJQsqaUBKTNV-0" />
        <mxCell id="WIyWlLk6GJQsqaUBKTNV-1" parent="WIyWlLk6GJQsqaUBKTNV-0" />
        <mxCell id="Jv5UY5b9vBqJby2BvhmY-1" value="" style="whiteSpace=wrap;html=1;aspect=fixed;" vertex="1" parent="WIyWlLk6GJQsqaUBKTNV-1">
          <mxGeometry x="235" y="80" width="450" height="450" as="geometry" />
        </mxCell>
        <mxCell id="Jv5UY5b9vBqJby2BvhmY-0" value="Customer&lt;br&gt;" style="shape=umlActor;verticalLabelPosition=bottom;verticalAlign=top;html=1;outlineConnect=0;" vertex="1" parent="WIyWlLk6GJQsqaUBKTNV-1">
          <mxGeometry x="50" y="300" width="40" height="80" as="geometry" />
        </mxCell>
        <mxCell id="Jv5UY5b9vBqJby2BvhmY-2" value="&lt;font style=&quot;font-size: 24px&quot;&gt;Movie-Ception&lt;/font&gt;" style="text;html=1;strokeColor=none;fillColor=none;align=center;verticalAlign=middle;whiteSpace=wrap;rounded=0;" vertex="1" parent="WIyWlLk6GJQsqaUBKTNV-1">
          <mxGeometry x="375" y="90" width="170" height="50" as="geometry" />
        </mxCell>
        <mxCell id="Jv5UY5b9vBqJby2BvhmY-20" value="" style="line;strokeWidth=2;html=1;rotation=-15;" vertex="1" parent="WIyWlLk6GJQsqaUBKTNV-1">
          <mxGeometry x="90.59" y="284.67" width="323.7" height="10" as="geometry" />
        </mxCell>
        <mxCell id="Jv5UY5b9vBqJby2BvhmY-21" value="" style="line;strokeWidth=2;html=1;rotation=0;" vertex="1" parent="WIyWlLk6GJQsqaUBKTNV-1">
          <mxGeometry x="100" y="350" width="300" height="10" as="geometry" />
        </mxCell>
        <mxCell id="Jv5UY5b9vBqJby2BvhmY-22" value="" style="line;strokeWidth=2;html=1;rotation=15;" vertex="1" parent="WIyWlLk6GJQsqaUBKTNV-1">
          <mxGeometry x="90.71" y="413.77" width="325.43" height="10" as="geometry" />
        </mxCell>
        <mxCell id="Jv5UY5b9vBqJby2BvhmY-24" value="&lt;span&gt;Sign Up / Login&lt;/span&gt;" style="ellipse;whiteSpace=wrap;html=1;" vertex="1" parent="WIyWlLk6GJQsqaUBKTNV-1">
          <mxGeometry x="410" y="191.79" width="100" height="77.5" as="geometry" />
        </mxCell>
        <mxCell id="Jv5UY5b9vBqJby2BvhmY-25" value="&lt;span&gt;Search Movie&lt;/span&gt;" style="ellipse;whiteSpace=wrap;html=1;" vertex="1" parent="WIyWlLk6GJQsqaUBKTNV-1">
          <mxGeometry x="407.5" y="320" width="105" height="70" as="geometry" />
        </mxCell>
        <mxCell id="Jv5UY5b9vBqJby2BvhmY-27" value="Access Movie&#39;s Data" style="ellipse;whiteSpace=wrap;html=1;" vertex="1" parent="WIyWlLk6GJQsqaUBKTNV-1">
          <mxGeometry x="407.5" y="450" width="105" height="70" as="geometry" />
        </mxCell>
      </root>
    </mxGraphModel>
  </diagram>
</mxfile>
